<?xml version="1.0" encoding="utf-8"?>
<!-- Generator: Adobe Illustrator 19.1.0, SVG Export Plug-In . SVG Version: 6.00 Build 0)  -->
<svg version="1.1" id="Layer_1" xmlns="http://www.w3.org/2000/svg" xmlns:xlink="http://www.w3.org/1999/xlink" x="0px" y="0px"
	 viewBox="-37 39 24 24" style="enable-background:new -37 39 24 24;" xml:space="preserve">
<style type="text/css">
	.st0{fill:none;}
	.st1{fill:#0C1C30;}
</style>
<path class="st0" d="M-37,39h24v24h-24V39z"/>
<path class="st1" d="M-22.4,47l-2.6,2.6l-2.6-2.6l-1.4,1.4l2.6,2.6l-2.6,2.6l1.4,1.4l2.6-2.6l2.6,2.6l1.4-1.4l-2.6-2.6l2.6-2.6
	L-22.4,47z M-25,41c-5.5,0-10,4.5-10,10s4.5,10,10,10s10-4.5,10-10S-19.5,41-25,41z M-25,59c-4.4,0-8-3.6-8-8s3.6-8,8-8s8,3.6,8,8
	S-20.6,59-25,59z"/>
</svg>
